<svg width="26" height="26" viewBox="0 0 26 26" fill="none" xmlns="http://www.w3.org/2000/svg">
<g id="Social Icons" clip-path="url(#clip0_2017_879)">
<path id="Vector" d="M23.1539 19.9507C22.7775 20.8202 22.332 21.6207 21.8158 22.3565C21.1122 23.3598 20.536 24.0542 20.0921 24.4398C19.4038 25.0727 18.6664 25.3969 17.8767 25.4153C17.3098 25.4153 16.6262 25.254 15.8303 24.9268C15.0319 24.6011 14.2982 24.4398 13.6273 24.4398C12.9237 24.4398 12.169 24.6011 11.3619 24.9268C10.5535 25.254 9.90222 25.4245 9.4043 25.4414C8.64706 25.4737 7.89228 25.1403 7.13887 24.4398C6.65801 24.0204 6.05655 23.3014 5.33602 22.2828C4.56296 21.1951 3.92739 19.9338 3.42947 18.4958C2.89622 16.9426 2.62891 15.4386 2.62891 13.9825C2.62891 12.3145 2.98932 10.8759 3.71123 9.67036C4.27859 8.70202 5.03337 7.93817 5.97804 7.37742C6.92272 6.81667 7.94344 6.53092 9.04266 6.51263C9.64412 6.51263 10.4329 6.69868 11.413 7.06432C12.3904 7.43119 13.018 7.61724 13.2931 7.61724C13.4989 7.61724 14.196 7.3997 15.3779 6.966C16.4956 6.56379 17.4389 6.39726 18.2116 6.46286C20.3056 6.63185 21.8788 7.45731 22.925 8.94445C21.0522 10.0792 20.1258 11.6685 20.1443 13.7073C20.1612 15.2954 20.7373 16.6169 21.8696 17.6662C22.3827 18.1532 22.9557 18.5296 23.5933 18.7969C23.455 19.1979 23.3091 19.582 23.1539 19.9507ZM18.3514 1.05261C18.3514 2.29734 17.8967 3.45954 16.9903 4.53526C15.8964 5.81408 14.5733 6.55304 13.1386 6.43643C13.1203 6.28711 13.1097 6.12994 13.1097 5.96479C13.1097 4.76985 13.6299 3.49103 14.5537 2.44542C15.0149 1.91601 15.6014 1.47581 16.3127 1.12466C17.0225 0.778745 17.6939 0.587446 18.3253 0.554688C18.3437 0.721088 18.3514 0.8875 18.3514 1.05259V1.05261Z" fill="white"/>
</g>
<defs>
<clipPath id="clip0_2017_879">
<rect width="24.8889" height="24.8889" fill="white" transform="translate(0.554688 0.554688)"/>
</clipPath>
</defs>
</svg>
