<svg width="25" height="26" viewBox="0 0 25 26" fill="none" xmlns="http://www.w3.org/2000/svg">
<g id="Vector">
<path id="Vector_2" d="M13 10.7363V15.5557H19.6974C19.4033 17.1056 18.5207 18.418 17.1971 19.3004L21.2359 22.4342C23.589 20.2621 24.9466 17.0718 24.9466 13.2819C24.9466 12.3995 24.8674 11.5509 24.7203 10.7365L13 10.7363Z" fill="#4285F4"/>
<path id="Vector_3" d="M6.02582 15.3672L5.11492 16.0645L1.89062 18.5759C3.9383 22.6373 8.13516 25.443 12.9998 25.443C16.3597 25.443 19.1766 24.3343 21.2357 22.4338L17.1969 19.3C16.0882 20.0467 14.674 20.4992 12.9998 20.4992C9.76423 20.4992 7.01522 18.3158 6.0309 15.3744L6.02582 15.3672Z" fill="#34A853"/>
<path id="Vector_4" d="M1.88954 7.42188C1.0411 9.09615 0.554688 10.9855 0.554688 12.9992C0.554688 15.0129 1.0411 16.9022 1.88954 18.5765C1.88954 18.5877 6.03022 15.3635 6.03022 15.3635C5.78133 14.6169 5.63422 13.825 5.63422 12.999C5.63422 12.1731 5.78133 11.3812 6.03022 10.6345L1.88954 7.42188Z" fill="#FBBC05"/>
<path id="Vector_5" d="M13 5.50984C14.8328 5.50984 16.4618 6.14335 17.7628 7.36519L21.3264 3.8016C19.1656 1.7879 16.3601 0.554688 13 0.554688C8.13541 0.554688 3.9383 3.34903 1.89062 7.42177L6.03118 10.6347C7.01536 7.69325 9.76448 5.50984 13 5.50984Z" fill="#EA4335"/>
</g>
</svg>
