<svg width="20" height="26" viewBox="0 0 20 26" fill="none" xmlns="http://www.w3.org/2000/svg">
<path d="M17.196 15.502C18.7487 15.502 20.0072 16.7605 20.0072 18.3131V19.0323C20.0072 20.1502 19.6077 21.2312 18.8808 22.0805C16.9191 24.3723 13.935 25.5033 10.0034 25.5033C6.07105 25.5033 3.08854 24.372 1.13066 22.0791C0.40595 21.2305 0.0078125 20.1511 0.0078125 19.0351V18.3131C0.0078125 16.7605 1.26637 15.502 2.8189 15.502H17.196ZM17.196 17.377H2.8189C2.30191 17.377 1.88281 17.7961 1.88281 18.3131V19.0351C1.88281 19.7047 2.1217 20.3523 2.55651 20.8615C4.12315 22.6961 6.5805 23.6283 10.0034 23.6283C13.4263 23.6283 15.8858 22.6961 17.4563 20.8612C17.8925 20.3516 18.1322 19.703 18.1322 19.0323V18.3131C18.1322 17.7961 17.713 17.377 17.196 17.377ZM10.0034 0.507812C13.4552 0.507812 16.2534 3.30604 16.2534 6.75781C16.2534 10.2096 13.4552 13.0078 10.0034 13.0078C6.5516 13.0078 3.75338 10.2096 3.75338 6.75781C3.75338 3.30604 6.5516 0.507812 10.0034 0.507812ZM10.0034 2.38281C7.58717 2.38281 5.62837 4.34158 5.62837 6.75781C5.62837 9.17406 7.58717 11.1328 10.0034 11.1328C12.4197 11.1328 14.3784 9.17406 14.3784 6.75781C14.3784 4.34158 12.4197 2.38281 10.0034 2.38281Z" fill="#3D3737"/>
</svg>
