<svg width="28" height="28" viewBox="0 0 28 28" fill="none" xmlns="http://www.w3.org/2000/svg">
<g id="Social Icons" clip-path="url(#clip0_2017_3067)">
<path id="Vector" d="M26.8044 7.5388C26.6536 6.97148 26.3565 6.45371 25.9428 6.03731C25.529 5.6209 25.0132 5.32047 24.4468 5.16607C22.362 4.60547 14.0286 4.60547 14.0286 4.60547C14.0286 4.60547 5.69531 4.60547 3.61046 5.16607C3.04412 5.32047 2.52827 5.6209 2.11452 6.03731C1.70077 6.45371 1.40365 6.97148 1.25289 7.5388C0.695313 9.63274 0.695312 13.9994 0.695312 13.9994C0.695312 13.9994 0.695313 18.3661 1.25289 20.46C1.40365 21.0273 1.70077 21.5451 2.11452 21.9615C2.52827 22.3779 3.04412 22.6783 3.61046 22.8327C5.69531 23.3933 14.0286 23.3933 14.0286 23.3933C14.0286 23.3933 22.362 23.3933 24.4468 22.8327C25.0132 22.6783 25.529 22.3779 25.9428 21.9615C26.3565 21.5451 26.6536 21.0273 26.8044 20.46C27.362 18.3661 27.362 13.9994 27.362 13.9994C27.362 13.9994 27.362 9.63274 26.8044 7.5388Z" fill="#FF0302"/>
<path id="Vector_2" d="M11.3008 17.9655V10.0352L18.2705 14.0003L11.3008 17.9655Z" fill="#FEFEFE"/>
</g>
<defs>
<clipPath id="clip0_2017_3067">
<rect width="26.6667" height="26.6667" fill="white" transform="translate(0.667969 0.666016)"/>
</clipPath>
</defs>
</svg>
