<svg width="125" height="26" viewBox="0 0 125 26" fill="none" xmlns="http://www.w3.org/2000/svg">
<path d="M107.037 25.1377V2.34375H112.156V14.4168H114.088L117.951 8.17101H123.682L118.337 16.2519L124.1 25.1377H118.209L114.249 18.9563H112.156V25.1377H107.037Z" fill="#F59C04"/>
<path d="M96.5279 25.3958C94.8109 25.3958 93.3299 25.0524 92.085 24.3655C90.8402 23.6573 89.8743 22.6485 89.1875 21.3392C88.5221 20.03 88.1895 18.4846 88.1895 16.7032C88.1895 14.8788 88.5329 13.312 89.2197 12.0027C89.928 10.672 90.9153 9.65252 92.1816 8.94423C93.4479 8.21448 94.9504 7.84961 96.6889 7.84961C98.1269 7.84961 99.404 8.1179 100.52 8.65448C101.658 9.1696 102.559 9.92081 103.224 10.9081C103.911 11.8954 104.298 13.1081 104.383 14.5461H99.4254C99.2537 13.8593 98.9211 13.3549 98.4274 13.033C97.9552 12.6896 97.3757 12.5179 96.6889 12.5179C95.8089 12.5179 95.1113 12.7432 94.5962 13.1939C94.1026 13.6232 93.7484 14.1598 93.5338 14.8037C93.3406 15.4476 93.244 16.0807 93.244 16.7032C93.244 17.39 93.3514 18.0446 93.566 18.6671C93.8021 19.2895 94.167 19.7939 94.6606 20.1802C95.1757 20.5666 95.8304 20.7597 96.6245 20.7597C97.3542 20.7597 97.9659 20.588 98.4596 20.2446C98.9747 19.9012 99.3074 19.3968 99.4576 18.7315H104.544C104.48 20.1909 104.072 21.4144 103.321 22.4017C102.591 23.389 101.636 24.1402 100.456 24.6553C99.2752 25.1489 97.9659 25.3958 96.5279 25.3958Z" fill="#F59C04"/>
<path d="M80.4379 25.1379V8.17125H85.5569V25.1379H80.4379ZM83.0135 6.75468C82.0691 6.75468 81.3072 6.47565 80.7277 5.91761C80.1697 5.35957 79.8906 4.62982 79.8906 3.72836C79.8906 2.80545 80.1911 2.05424 80.7921 1.47473C81.3931 0.895222 82.1443 0.605469 83.0457 0.605469C83.9042 0.605469 84.634 0.88449 85.235 1.44253C85.8359 2.00058 86.1364 2.75179 86.1364 3.69617C86.1364 4.61909 85.8467 5.35957 85.2672 5.91761C84.6877 6.47565 83.9364 6.75468 83.0135 6.75468Z" fill="#F59C04"/>
<path d="M65.582 18.6442V2.48242H69.6064C71.3664 2.48242 72.901 2.73998 74.2102 3.2551C75.541 3.77021 76.5712 4.60728 77.3009 5.76629C78.0522 6.9253 78.4278 8.49212 78.4278 10.4667C78.4278 12.2911 78.0307 13.815 77.2366 15.0384C76.4424 16.2618 75.3585 17.174 73.9849 17.775C72.6112 18.3545 71.0444 18.6442 69.2844 18.6442H65.582ZM65.582 14.0082H69.2844C70.5078 14.0082 71.4737 13.7077 72.182 13.1067C72.9117 12.5057 73.2766 11.6257 73.2766 10.4667C73.2766 9.4365 72.9654 8.65309 72.3429 8.11651C71.742 7.57993 70.7439 7.31164 69.3488 7.31164H65.582V14.0082Z" fill="#F59C04"/>
<path d="M58.6211 25.1377V2.34375H63.7401V25.1377H58.6211Z" fill="#F59C04"/>
<path d="M47.9906 25.3958C46.2306 25.3958 44.7067 25.0416 43.4189 24.3333C42.1526 23.6251 41.176 22.627 40.4892 21.3392C39.8024 20.03 39.459 18.4954 39.459 16.7354C39.459 14.9754 39.8131 13.43 40.5214 12.0993C41.2297 10.7686 42.217 9.72764 43.4833 8.97643C44.7711 8.22521 46.2843 7.84961 48.0228 7.84961C49.2891 7.84961 50.4052 8.05351 51.3711 8.46131C52.3584 8.86911 53.1954 9.44862 53.8823 10.1998C54.5905 10.951 55.1164 11.8418 55.4598 12.872C55.8247 13.9022 56.0071 15.029 56.0071 16.2525C55.9856 16.5744 55.9642 16.8963 55.9427 17.2183C55.9213 17.5188 55.8676 17.83 55.7817 18.1519H44.5136C44.578 18.6885 44.7389 19.1822 44.9965 19.6329C45.254 20.0836 45.6189 20.4378 46.0911 20.6953C46.5633 20.9529 47.1643 21.0817 47.894 21.0817C48.4091 21.0817 48.8706 21.028 49.2784 20.9207C49.7077 20.7919 50.0618 20.6202 50.3408 20.4056C50.6198 20.1695 50.8023 19.9119 50.8881 19.6329H55.9105C55.6315 20.9851 55.0949 22.0904 54.3008 22.949C53.5066 23.786 52.5623 24.4085 51.4676 24.8163C50.373 25.2026 49.214 25.3958 47.9906 25.3958ZM44.6102 14.7071H51.1457C51.1457 14.2564 51.0276 13.8164 50.7916 13.3871C50.5769 12.9579 50.2335 12.6144 49.7613 12.3569C49.2891 12.0779 48.6774 11.9383 47.9262 11.9383C47.1965 11.9383 46.5848 12.0779 46.0911 12.3569C45.5975 12.6359 45.2326 12.99 44.9965 13.4193C44.7604 13.8486 44.6316 14.2778 44.6102 14.7071Z" fill="#F59C04"/>
<path d="M29.4711 25.3958C27.7111 25.3958 26.1872 25.0416 24.8994 24.3333C23.6331 23.6251 22.6565 22.627 21.9697 21.3392C21.2829 20.03 20.9395 18.4954 20.9395 16.7354C20.9395 14.9754 21.2936 13.43 22.0019 12.0993C22.7102 10.7686 23.6975 9.72764 24.9638 8.97643C26.2516 8.22521 27.7648 7.84961 29.5033 7.84961C30.7696 7.84961 31.8857 8.05351 32.8515 8.46131C33.8388 8.86911 34.6759 9.44862 35.3627 10.1998C36.071 10.951 36.5969 11.8418 36.9403 12.872C37.3051 13.9022 37.4876 15.029 37.4876 16.2525C37.4661 16.5744 37.4447 16.8963 37.4232 17.2183C37.4017 17.5188 37.3481 17.83 37.2622 18.1519H25.994C26.0584 18.6885 26.2194 19.1822 26.477 19.6329C26.7345 20.0836 27.0994 20.4378 27.5716 20.6953C28.0438 20.9529 28.6447 21.0817 29.3745 21.0817C29.8896 21.0817 30.3511 21.028 30.7589 20.9207C31.1881 20.7919 31.5423 20.6202 31.8213 20.4056C32.1003 20.1695 32.2828 19.9119 32.3686 19.6329H37.391C37.112 20.9851 36.5754 22.0904 35.7813 22.949C34.9871 23.786 34.0427 24.4085 32.9481 24.8163C31.8535 25.2026 30.6945 25.3958 29.4711 25.3958ZM26.0906 14.7071H32.6262C32.6262 14.2564 32.5081 13.8164 32.272 13.3871C32.0574 12.9579 31.714 12.6144 31.2418 12.3569C30.7696 12.0779 30.1579 11.9383 29.4067 11.9383C28.6769 11.9383 28.0652 12.0779 27.5716 12.3569C27.0779 12.6359 26.7131 12.99 26.477 13.4193C26.2409 13.8486 26.1121 14.2778 26.0906 14.7071Z" fill="#F59C04"/>
<path d="M0 25.1377V2.34375H9.40088C10.474 2.34375 11.5365 2.45107 12.5882 2.6657C13.6613 2.85887 14.6379 3.22374 15.5179 3.76032C16.3979 4.2969 17.0954 5.05884 17.6106 6.04615C18.1471 7.01199 18.4154 8.25686 18.4154 9.78075C18.4154 10.811 18.2437 11.7661 17.9003 12.6461C17.5569 13.5261 17.0418 14.288 16.355 14.9319C15.6896 15.5758 14.8418 16.0802 13.8116 16.4451L18.9949 25.1377H13.0711L8.6604 17.2821H5.21556V25.1377H0ZM5.21556 12.6783H9.23991C9.86234 12.6783 10.4097 12.6246 10.8818 12.5173C11.3755 12.3885 11.794 12.2168 12.1374 12.0022C12.4809 11.7661 12.7384 11.4656 12.9101 11.1007C13.1033 10.7359 13.2106 10.2959 13.2321 9.78075C13.2321 9.07246 13.0604 8.53588 12.7169 8.17101C12.395 7.80613 11.955 7.54858 11.397 7.39833C10.8389 7.24809 10.195 7.17297 9.46527 7.17297H5.21556V12.6783Z" fill="#F59C04"/>
</svg>
