<svg width="20" height="26" viewBox="0 0 20 26" fill="none" xmlns="http://www.w3.org/2000/svg">
<path d="M17.1941 15.5C18.7467 15.5 20.0052 16.7585 20.0052 18.3111V19.0304C20.0052 20.1483 19.6057 21.2293 18.8788 22.0785C16.9171 24.3704 13.9331 25.5014 10.0015 25.5014C6.0691 25.5014 3.08658 24.37 1.12871 22.0771C0.403997 21.2285 0.00585938 20.1491 0.00585938 19.0331V18.3111C0.00585938 16.7585 1.26442 15.5 2.81695 15.5H17.1941ZM17.1941 17.375H2.81695C2.29996 17.375 1.88086 17.7941 1.88086 18.3111V19.0331C1.88086 19.7028 2.11975 20.3504 2.55456 20.8595C4.1212 22.6941 6.57855 23.6264 10.0015 23.6264C13.4243 23.6264 15.8838 22.6941 17.4543 20.8593C17.8906 20.3496 18.1302 19.701 18.1302 19.0304V18.3111C18.1302 17.7941 17.7111 17.375 17.1941 17.375ZM10.0015 0.505859C13.4532 0.505859 16.2515 3.30408 16.2515 6.75586C16.2515 10.2076 13.4532 13.0059 10.0015 13.0059C6.54965 13.0059 3.75142 10.2076 3.75142 6.75586C3.75142 3.30408 6.54965 0.505859 10.0015 0.505859ZM10.0015 2.38086C7.58522 2.38086 5.62642 4.33962 5.62642 6.75586C5.62642 9.17211 7.58522 11.1309 10.0015 11.1309C12.4177 11.1309 14.3765 9.17211 14.3765 6.75586C14.3765 4.33962 12.4177 2.38086 10.0015 2.38086Z" fill="white"/>
</svg>
