<svg width="125" height="26" viewBox="0 0 125 26" fill="none" xmlns="http://www.w3.org/2000/svg">
<path d="M107.035 25.1377V2.34375H112.154V14.4168H114.086L117.949 8.17101H123.68L118.336 16.2519L124.098 25.1377H118.207L114.247 18.9563H112.154V25.1377H107.035Z" fill="#F59C04"/>
<path d="M96.526 25.3958C94.8089 25.3958 93.3279 25.0524 92.0831 24.3655C90.8382 23.6573 89.8724 22.6485 89.1855 21.3392C88.5202 20.03 88.1875 18.4846 88.1875 16.7032C88.1875 14.8788 88.5309 13.312 89.2177 12.0027C89.926 10.672 90.9133 9.65252 92.1797 8.94423C93.446 8.21448 94.9484 7.84961 96.6869 7.84961C98.125 7.84961 99.402 8.1179 100.518 8.65448C101.656 9.1696 102.557 9.92081 103.222 10.9081C103.909 11.8954 104.296 13.1081 104.381 14.5461H99.4235C99.2518 13.8593 98.9191 13.3549 98.4254 13.033C97.9533 12.6896 97.3738 12.5179 96.6869 12.5179C95.8069 12.5179 95.1094 12.7432 94.5943 13.1939C94.1006 13.6232 93.7465 14.1598 93.5318 14.8037C93.3387 15.4476 93.2421 16.0807 93.2421 16.7032C93.2421 17.39 93.3494 18.0446 93.564 18.6671C93.8001 19.2895 94.165 19.7939 94.6587 20.1802C95.1738 20.5666 95.8284 20.7597 96.6225 20.7597C97.3523 20.7597 97.964 20.588 98.4576 20.2446C98.9728 19.9012 99.3054 19.3968 99.4557 18.7315H104.542C104.478 20.1909 104.07 21.4144 103.319 22.4017C102.589 23.389 101.634 24.1402 100.454 24.6553C99.2732 25.1489 97.964 25.3958 96.526 25.3958Z" fill="#F59C04"/>
<path d="M80.4379 25.1379V8.17125H85.5569V25.1379H80.4379ZM83.0135 6.75468C82.0691 6.75468 81.3072 6.47565 80.7277 5.91761C80.1697 5.35957 79.8906 4.62982 79.8906 3.72836C79.8906 2.80545 80.1911 2.05424 80.7921 1.47473C81.3931 0.895222 82.1443 0.605469 83.0457 0.605469C83.9042 0.605469 84.634 0.88449 85.235 1.44253C85.8359 2.00058 86.1364 2.75179 86.1364 3.69617C86.1364 4.61909 85.8467 5.35957 85.2672 5.91761C84.6877 6.47565 83.9364 6.75468 83.0135 6.75468Z" fill="#F59C04"/>
<path d="M65.582 18.6442V2.48242H69.6064C71.3664 2.48242 72.901 2.73998 74.2102 3.2551C75.541 3.77021 76.5712 4.60728 77.3009 5.76629C78.0522 6.9253 78.4278 8.49212 78.4278 10.4667C78.4278 12.2911 78.0307 13.815 77.2366 15.0384C76.4424 16.2618 75.3585 17.174 73.9849 17.775C72.6112 18.3545 71.0444 18.6442 69.2844 18.6442H65.582ZM65.582 14.0082H69.2844C70.5078 14.0082 71.4737 13.7077 72.182 13.1067C72.9117 12.5057 73.2766 11.6257 73.2766 10.4667C73.2766 9.4365 72.9654 8.65309 72.3429 8.11651C71.742 7.57993 70.7439 7.31164 69.3488 7.31164H65.582V14.0082Z" fill="#F59C04"/>
<path d="M58.6211 25.1377V2.34375H63.7401V25.1377H58.6211Z" fill="#F59C04"/>
<path d="M47.9887 25.3958C46.2287 25.3958 44.7048 25.0416 43.417 24.3333C42.1507 23.6251 41.1741 22.627 40.4873 21.3392C39.8004 20.03 39.457 18.4954 39.457 16.7354C39.457 14.9754 39.8112 13.43 40.5195 12.0993C41.2277 10.7686 42.2151 9.72764 43.4814 8.97643C44.7692 8.22521 46.2823 7.84961 48.0208 7.84961C49.2872 7.84961 50.4033 8.05351 51.3691 8.46131C52.3564 8.86911 53.1935 9.44862 53.8803 10.1998C54.5886 10.951 55.1144 11.8418 55.4578 12.872C55.8227 13.9022 56.0052 15.029 56.0052 16.2525C55.9837 16.5744 55.9622 16.8963 55.9408 17.2183C55.9193 17.5188 55.8656 17.83 55.7798 18.1519H44.5116C44.576 18.6885 44.737 19.1822 44.9945 19.6329C45.2521 20.0836 45.617 20.4378 46.0892 20.6953C46.5614 20.9529 47.1623 21.0817 47.8921 21.0817C48.4072 21.0817 48.8686 21.028 49.2764 20.9207C49.7057 20.7919 50.0599 20.6202 50.3389 20.4056C50.6179 20.1695 50.8003 19.9119 50.8862 19.6329H55.9086C55.6296 20.9851 55.093 22.0904 54.2988 22.949C53.5047 23.786 52.5603 24.4085 51.4657 24.8163C50.3711 25.2026 49.2121 25.3958 47.9887 25.3958ZM44.6082 14.7071H51.1437C51.1437 14.2564 51.0257 13.8164 50.7896 13.3871C50.575 12.9579 50.2316 12.6144 49.7594 12.3569C49.2872 12.0779 48.6755 11.9383 47.9243 11.9383C47.1945 11.9383 46.5828 12.0779 46.0892 12.3569C45.5955 12.6359 45.2306 12.99 44.9945 13.4193C44.7584 13.8486 44.6297 14.2778 44.6082 14.7071Z" fill="#F59C04"/>
<path d="M29.473 25.3958C27.713 25.3958 26.1892 25.0416 24.9014 24.3333C23.635 23.6251 22.6585 22.627 21.9716 21.3392C21.2848 20.03 20.9414 18.4954 20.9414 16.7354C20.9414 14.9754 21.2955 13.43 22.0038 12.0993C22.7121 10.7686 23.6994 9.72764 24.9658 8.97643C26.2535 8.22521 27.7667 7.84961 29.5052 7.84961C30.7716 7.84961 31.8876 8.05351 32.8535 8.46131C33.8408 8.86911 34.6779 9.44862 35.3647 10.1998C36.073 10.951 36.5988 11.8418 36.9422 12.872C37.3071 13.9022 37.4895 15.029 37.4895 16.2525C37.4681 16.5744 37.4466 16.8963 37.4251 17.2183C37.4037 17.5188 37.35 17.83 37.2642 18.1519H25.996C26.0604 18.6885 26.2214 19.1822 26.4789 19.6329C26.7365 20.0836 27.1013 20.4378 27.5735 20.6953C28.0457 20.9529 28.6467 21.0817 29.3764 21.0817C29.8916 21.0817 30.353 21.028 30.7608 20.9207C31.1901 20.7919 31.5442 20.6202 31.8233 20.4056C32.1023 20.1695 32.2847 19.9119 32.3706 19.6329H37.393C37.1139 20.9851 36.5773 22.0904 35.7832 22.949C34.9891 23.786 34.0447 24.4085 32.9501 24.8163C31.8554 25.2026 30.6964 25.3958 29.473 25.3958ZM26.0926 14.7071H32.6281C32.6281 14.2564 32.5101 13.8164 32.274 13.3871C32.0593 12.9579 31.7159 12.6144 31.2437 12.3569C30.7716 12.0779 30.1599 11.9383 29.4086 11.9383C28.6789 11.9383 28.0672 12.0779 27.5735 12.3569C27.0799 12.6359 26.715 12.99 26.4789 13.4193C26.2428 13.8486 26.114 14.2778 26.0926 14.7071Z" fill="#F59C04"/>
<path d="M0 25.1377V2.34375H9.40088C10.474 2.34375 11.5365 2.45107 12.5882 2.6657C13.6613 2.85887 14.6379 3.22374 15.5179 3.76032C16.3979 4.2969 17.0954 5.05884 17.6106 6.04615C18.1471 7.01199 18.4154 8.25686 18.4154 9.78075C18.4154 10.811 18.2437 11.7661 17.9003 12.6461C17.5569 13.5261 17.0418 14.288 16.355 14.9319C15.6896 15.5758 14.8418 16.0802 13.8116 16.4451L18.9949 25.1377H13.0711L8.6604 17.2821H5.21556V25.1377H0ZM5.21556 12.6783H9.23991C9.86234 12.6783 10.4097 12.6246 10.8818 12.5173C11.3755 12.3885 11.794 12.2168 12.1374 12.0022C12.4809 11.7661 12.7384 11.4656 12.9101 11.1007C13.1033 10.7359 13.2106 10.2959 13.2321 9.78075C13.2321 9.07246 13.0604 8.53588 12.7169 8.17101C12.395 7.80613 11.955 7.54858 11.397 7.39833C10.8389 7.24809 10.195 7.17297 9.46527 7.17297H5.21556V12.6783Z" fill="#F59C04"/>
</svg>
