<svg width="65" height="65" viewBox="0 0 65 65" fill="none" xmlns="http://www.w3.org/2000/svg">
<circle cx="32.5" cy="32.5" r="32.5" fill="#F59C04"/>
<path d="M2 64.6848V6.91504H25.826C28.5458 6.91504 31.2385 7.18702 33.9039 7.731C36.6238 8.22057 39.0989 9.14532 41.3292 10.5052C43.5594 11.8652 45.3273 13.7963 46.6329 16.2985C47.9928 18.7464 48.6728 21.9015 48.6728 25.7637C48.6728 28.3747 48.2376 30.7954 47.3672 33.0257C46.4969 35.256 45.1913 37.1871 43.4506 38.819C41.7643 40.4509 39.6156 41.7292 37.0046 42.654L50.1415 64.6848H35.1279L23.9493 44.7755H15.2185V64.6848H2ZM15.2185 33.1073H25.418C26.9955 33.1073 28.3826 32.9713 29.5794 32.6993C30.8305 32.3729 31.8912 31.9377 32.7616 31.3938C33.632 30.7954 34.2847 30.0338 34.7199 29.1091C35.2095 28.1843 35.4815 27.0692 35.5359 25.7637C35.5359 23.9685 35.1007 22.6086 34.2303 21.6839C33.4144 20.7591 32.2992 20.1063 30.8849 19.7256C29.4706 19.3448 27.8387 19.1544 25.9891 19.1544H15.2185V33.1073Z" fill="black"/>
</svg>
